<svg xmlns="http://www.w3.org/2000/svg" viewBox="0 0 64 64" fill="none">
  <defs>
    <linearGradient id="ps-bg" x1="12" y1="8" x2="52" y2="56" gradientUnits="userSpaceOnUse">
      <stop stop-color="#55A4FF"/>
      <stop offset="1" stop-color="#1F5FD6"/>
    </linearGradient>
    <linearGradient id="ps-arrow" x1="18" y1="18" x2="48" y2="46" gradientUnits="userSpaceOnUse">
      <stop stop-color="#FFFFFF"/>
      <stop offset="1" stop-color="#DCEBFF"/>
    </linearGradient>
  </defs>
  <rect x="6" y="6" width="52" height="52" rx="16" fill="url(#ps-bg)"/>
  <path d="M18 23.5C18 20.4624 20.4624 18 23.5 18H39.5858L35.7929 14.2071C35.4024 13.8166 35.4024 13.1834 35.7929 12.7929C36.1834 12.4024 36.8166 12.4024 37.2071 12.7929L42.7071 18.2929C43.0976 18.6834 43.0976 19.3166 42.7071 19.7071L37.2071 25.2071C36.8166 25.5976 36.1834 25.5976 35.7929 25.2071C35.4024 24.8166 35.4024 24.1834 35.7929 23.7929L39.5858 20H23.5C21.567 20 20 21.567 20 23.5V27C20 27.5523 19.5523 28 19 28C18.4477 28 18 27.5523 18 27V23.5Z" fill="url(#ps-arrow)"/>
  <path d="M46 40.5C46 43.5376 43.5376 46 40.5 46H24.4142L28.2071 49.7929C28.5976 50.1834 28.5976 50.8166 28.2071 51.2071C27.8166 51.5976 27.1834 51.5976 26.7929 51.2071L21.2929 45.7071C20.9024 45.3166 20.9024 44.6834 21.2929 44.2929L26.7929 38.7929C27.1834 38.4024 27.8166 38.4024 28.2071 38.7929C28.5976 39.1834 28.5976 39.8166 28.2071 40.2071L24.4142 44H40.5C42.433 44 44 42.433 44 40.5V37C44 36.4477 44.4477 36 45 36C45.5523 36 46 36.4477 46 37V40.5Z" fill="url(#ps-arrow)"/>
  <circle cx="45" cy="19" r="3" fill="#DDEBFF" fill-opacity=".95"/>
  <circle cx="19" cy="45" r="3" fill="#DDEBFF" fill-opacity=".95"/>
</svg>
